<?xml version="1.0" encoding="iso-8859-1"?>
<!-- Generator: Adobe Illustrator 18.0.0, SVG Export Plug-In . SVG Version: 6.00 Build 0)  -->
<!DOCTYPE svg PUBLIC "-//W3C//DTD SVG 1.1//EN" "http://www.w3.org/Graphics/SVG/1.1/DTD/svg11.dtd">
<svg version="1.1" 
	id="Capa_1" 
	xmlns="http://www.w3.org/2000/svg"
	xmlns:xlink="http://www.w3.org/1999/xlink" 
	x="0px" y="0px"
	viewBox="0 0 60.013 60.013" 
	style="enable-background:new 0 0 60.013 60.013;" 
	xml:space="preserve"
	width="30px" height="30px">
<path d="M11.68,13.006l-0.832-5h-2.99c-0.447-1.72-1.999-3-3.858-3c-2.206,0-4,1.794-4,4s1.794,4,4,4c1.859,0,3.411-1.28,3.858-3
	h1.294l0.5,3H9.615l5.17,26.016c-2.465,0.188-4.518,2.086-4.76,4.474c-0.142,1.405,0.32,2.812,1.268,3.858
	c0.949,1.05,2.301,1.652,3.707,1.652h2c0,3.309,2.691,6,6,6s6-2.691,6-6h11c0,3.309,2.691,6,6,6s6-2.691,6-6h4c0.553,0,1-0.447,1-1
	s-0.447-1-1-1h-4.35c-0.826-2.327-3.043-4-5.65-4s-4.824,1.673-5.65,4h-11.7c-0.826-2.327-3.043-4-5.65-4s-4.824,1.673-5.65,4H15
	c-0.842,0-1.652-0.362-2.224-0.993c-0.577-0.639-0.848-1.461-0.761-2.316c0.152-1.509,1.546-2.69,3.173-2.69h0.781
	c0.02,0,0.04,0,0.06,0l22.299-0.007c0.001,0,0.001,0,0.002,0s0.001,0,0.001,0l11.314-0.004l0.001,0c0,0,0.001,0,0.001,0l5.377-0.002
	c2.751,0,4.988-2.237,4.988-4.987V12.994L11.68,13.006z M4,11.006c-1.103,0-2-0.897-2-2s0.897-2,2-2s2,0.897,2,2
	S5.103,11.006,4,11.006z M46,45.006c2.206,0,4,1.794,4,4s-1.794,4-4,4s-4-1.794-4-4S43.794,45.006,46,45.006z M23,45.006
	c2.206,0,4,1.794,4,4s-1.794,4-4,4s-4-1.794-4-4S20.794,45.006,23,45.006z M58.013,30.216l-8.78,8.779l-8.487,0.003L58.013,21.73
	V30.216z M58.013,18.902L37.917,38.999l-8.49,0.003l24.008-24.007l4.578-0.001V18.902z M18.111,39.005l24.007-24.007l8.488-0.002
	L26.598,39.002L18.111,39.005z M13.283,21.205l6.201-6.201l8.489-0.002L14.69,28.284L13.283,21.205z M16.655,15.005l-3.841,3.841
	l-0.763-3.839L16.655,15.005z M15.158,30.644l15.643-15.643l8.488-0.002L16.615,37.672c-0.021,0.021-0.028,0.048-0.046,0.069
	L15.158,30.644z M55.024,38.994l-2.963,0.001l5.951-5.95v2.962C58.013,37.654,56.672,38.994,55.024,38.994z"/>
</svg>
